# Vark authored imported model: CabinetBody
o CabinetBody
s off
v -0.375000 0.000000 -0.225000
v -0.375000 0.050000 -0.225000
v 0.375000 0.050000 -0.225000
v 0.375000 0.000000 -0.225000
v -0.375000 0.000000 0.225000
v 0.375000 0.000000 0.225000
v 0.375000 0.050000 0.225000
v -0.375000 0.050000 0.225000
vn 0.000000 0.000000 -1.000000
vn 0.000000 0.000000 1.000000
vn 1.000000 0.000000 0.000000
vn -1.000000 0.000000 0.000000
vn 0.000000 1.000000 0.000000
vn 0.000000 -1.000000 0.000000
f 1//1 2//1 3//1 4//1
f 5//2 6//2 7//2 8//2
f 4//3 3//3 7//3 6//3
f 1//4 5//4 8//4 2//4
f 2//5 8//5 7//5 3//5
f 1//6 4//6 6//6 5//6
v -0.375000 1.300000 -0.225000
v -0.375000 1.350000 -0.225000
v 0.375000 1.350000 -0.225000
v 0.375000 1.300000 -0.225000
v -0.375000 1.300000 0.225000
v 0.375000 1.300000 0.225000
v 0.375000 1.350000 0.225000
v -0.375000 1.350000 0.225000
vn 0.000000 0.000000 -1.000000
vn 0.000000 0.000000 1.000000
vn 1.000000 0.000000 0.000000
vn -1.000000 0.000000 0.000000
vn 0.000000 1.000000 0.000000
vn 0.000000 -1.000000 0.000000
f 9//7 10//7 11//7 12//7
f 13//8 14//8 15//8 16//8
f 12//9 11//9 15//9 14//9
f 9//10 13//10 16//10 10//10
f 10//11 16//11 15//11 11//11
f 9//12 12//12 14//12 13//12
v -0.375000 0.050000 -0.225000
v -0.375000 1.300000 -0.225000
v -0.325000 1.300000 -0.225000
v -0.325000 0.050000 -0.225000
v -0.375000 0.050000 0.225000
v -0.325000 0.050000 0.225000
v -0.325000 1.300000 0.225000
v -0.375000 1.300000 0.225000
vn 0.000000 0.000000 -1.000000
vn 0.000000 0.000000 1.000000
vn 1.000000 0.000000 0.000000
vn -1.000000 0.000000 0.000000
vn 0.000000 1.000000 0.000000
vn 0.000000 -1.000000 0.000000
f 17//13 18//13 19//13 20//13
f 21//14 22//14 23//14 24//14
f 20//15 19//15 23//15 22//15
f 17//16 21//16 24//16 18//16
f 18//17 24//17 23//17 19//17
f 17//18 20//18 22//18 21//18
v 0.325000 0.050000 -0.225000
v 0.325000 1.300000 -0.225000
v 0.375000 1.300000 -0.225000
v 0.375000 0.050000 -0.225000
v 0.325000 0.050000 0.225000
v 0.375000 0.050000 0.225000
v 0.375000 1.300000 0.225000
v 0.325000 1.300000 0.225000
vn 0.000000 0.000000 -1.000000
vn 0.000000 0.000000 1.000000
vn 1.000000 0.000000 0.000000
vn -1.000000 0.000000 0.000000
vn 0.000000 1.000000 0.000000
vn 0.000000 -1.000000 0.000000
f 25//19 26//19 27//19 28//19
f 29//20 30//20 31//20 32//20
f 28//21 27//21 31//21 30//21
f 25//22 29//22 32//22 26//22
f 26//23 32//23 31//23 27//23
f 25//24 28//24 30//24 29//24
v -0.325000 0.050000 -0.225000
v -0.325000 1.300000 -0.225000
v 0.325000 1.300000 -0.225000
v 0.325000 0.050000 -0.225000
v -0.325000 0.050000 -0.185000
v 0.325000 0.050000 -0.185000
v 0.325000 1.300000 -0.185000
v -0.325000 1.300000 -0.185000
vn 0.000000 0.000000 -1.000000
vn 0.000000 0.000000 1.000000
vn 1.000000 0.000000 0.000000
vn -1.000000 0.000000 0.000000
vn 0.000000 1.000000 0.000000
vn 0.000000 -1.000000 0.000000
f 33//25 34//25 35//25 36//25
f 37//26 38//26 39//26 40//26
f 36//27 35//27 39//27 38//27
f 33//28 37//28 40//28 34//28
f 34//29 40//29 39//29 35//29
f 33//30 36//30 38//30 37//30
v -0.325000 0.650000 -0.185000
v -0.325000 0.690000 -0.185000
v 0.325000 0.690000 -0.185000
v 0.325000 0.650000 -0.185000
v -0.325000 0.650000 0.225000
v 0.325000 0.650000 0.225000
v 0.325000 0.690000 0.225000
v -0.325000 0.690000 0.225000
vn 0.000000 0.000000 -1.000000
vn 0.000000 0.000000 1.000000
vn 1.000000 0.000000 0.000000
vn -1.000000 0.000000 0.000000
vn 0.000000 1.000000 0.000000
vn 0.000000 -1.000000 0.000000
f 41//31 42//31 43//31 44//31
f 45//32 46//32 47//32 48//32
f 44//33 43//33 47//33 46//33
f 41//34 45//34 48//34 42//34
f 42//35 48//35 47//35 43//35
f 41//36 44//36 46//36 45//36
