# Vark imported model: HangingLanternBody
o Canopy
s off
v -0.140000 -0.060000 -0.140000
v -0.140000 0.000000 -0.140000
v 0.140000 0.000000 -0.140000
v 0.140000 -0.060000 -0.140000
v -0.140000 -0.060000 0.140000
v 0.140000 -0.060000 0.140000
v 0.140000 0.000000 0.140000
v -0.140000 0.000000 0.140000
vn 0.000000 0.000000 -1.000000
vn 0.000000 0.000000 1.000000
vn 1.000000 0.000000 0.000000
vn -1.000000 0.000000 0.000000
vn 0.000000 1.000000 0.000000
vn 0.000000 -1.000000 0.000000
f 1//1 2//1 3//1 4//1
f 5//2 6//2 7//2 8//2
f 4//3 3//3 7//3 6//3
f 1//4 5//4 8//4 2//4
f 2//5 8//5 7//5 3//5
f 1//6 4//6 6//6 5//6
o Chain
s off
v -0.020000 -0.140000 -0.020000
v -0.020000 -0.060000 -0.020000
v 0.020000 -0.060000 -0.020000
v 0.020000 -0.140000 -0.020000
v -0.020000 -0.140000 0.020000
v 0.020000 -0.140000 0.020000
v 0.020000 -0.060000 0.020000
v -0.020000 -0.060000 0.020000
vn 0.000000 0.000000 -1.000000
vn 0.000000 0.000000 1.000000
vn 1.000000 0.000000 0.000000
vn -1.000000 0.000000 0.000000
vn 0.000000 1.000000 0.000000
vn 0.000000 -1.000000 0.000000
f 9//7 10//7 11//7 12//7
f 13//8 14//8 15//8 16//8
f 12//9 11//9 15//9 14//9
f 9//10 13//10 16//10 10//10
f 10//11 16//11 15//11 11//11
f 9//12 12//12 14//12 13//12
o TopCap
s off
v -0.125000 -0.200000 -0.125000
v -0.125000 -0.140000 -0.125000
v 0.125000 -0.140000 -0.125000
v 0.125000 -0.200000 -0.125000
v -0.125000 -0.200000 0.125000
v 0.125000 -0.200000 0.125000
v 0.125000 -0.140000 0.125000
v -0.125000 -0.140000 0.125000
vn 0.000000 0.000000 -1.000000
vn 0.000000 0.000000 1.000000
vn 1.000000 0.000000 0.000000
vn -1.000000 0.000000 0.000000
vn 0.000000 1.000000 0.000000
vn 0.000000 -1.000000 0.000000
f 17//13 18//13 19//13 20//13
f 21//14 22//14 23//14 24//14
f 20//15 19//15 23//15 22//15
f 17//16 21//16 24//16 18//16
f 18//17 24//17 23//17 19//17
f 17//18 20//18 22//18 21//18
o BarNE
s off
v 0.120000 -0.480000 0.120000
v 0.120000 -0.200000 0.120000
v 0.150000 -0.200000 0.120000
v 0.150000 -0.480000 0.120000
v 0.120000 -0.480000 0.150000
v 0.150000 -0.480000 0.150000
v 0.150000 -0.200000 0.150000
v 0.120000 -0.200000 0.150000
vn 0.000000 0.000000 -1.000000
vn 0.000000 0.000000 1.000000
vn 1.000000 0.000000 0.000000
vn -1.000000 0.000000 0.000000
vn 0.000000 1.000000 0.000000
vn 0.000000 -1.000000 0.000000
f 25//19 26//19 27//19 28//19
f 29//20 30//20 31//20 32//20
f 28//21 27//21 31//21 30//21
f 25//22 29//22 32//22 26//22
f 26//23 32//23 31//23 27//23
f 25//24 28//24 30//24 29//24
o BarNW
s off
v -0.150000 -0.480000 0.120000
v -0.150000 -0.200000 0.120000
v -0.120000 -0.200000 0.120000
v -0.120000 -0.480000 0.120000
v -0.150000 -0.480000 0.150000
v -0.120000 -0.480000 0.150000
v -0.120000 -0.200000 0.150000
v -0.150000 -0.200000 0.150000
vn 0.000000 0.000000 -1.000000
vn 0.000000 0.000000 1.000000
vn 1.000000 0.000000 0.000000
vn -1.000000 0.000000 0.000000
vn 0.000000 1.000000 0.000000
vn 0.000000 -1.000000 0.000000
f 33//25 34//25 35//25 36//25
f 37//26 38//26 39//26 40//26
f 36//27 35//27 39//27 38//27
f 33//28 37//28 40//28 34//28
f 34//29 40//29 39//29 35//29
f 33//30 36//30 38//30 37//30
o BarSW
s off
v -0.150000 -0.480000 -0.150000
v -0.150000 -0.200000 -0.150000
v -0.120000 -0.200000 -0.150000
v -0.120000 -0.480000 -0.150000
v -0.150000 -0.480000 -0.120000
v -0.120000 -0.480000 -0.120000
v -0.120000 -0.200000 -0.120000
v -0.150000 -0.200000 -0.120000
vn 0.000000 0.000000 -1.000000
vn 0.000000 0.000000 1.000000
vn 1.000000 0.000000 0.000000
vn -1.000000 0.000000 0.000000
vn 0.000000 1.000000 0.000000
vn 0.000000 -1.000000 0.000000
f 41//31 42//31 43//31 44//31
f 45//32 46//32 47//32 48//32
f 44//33 43//33 47//33 46//33
f 41//34 45//34 48//34 42//34
f 42//35 48//35 47//35 43//35
f 41//36 44//36 46//36 45//36
o BarSE
s off
v 0.120000 -0.480000 -0.150000
v 0.120000 -0.200000 -0.150000
v 0.150000 -0.200000 -0.150000
v 0.150000 -0.480000 -0.150000
v 0.120000 -0.480000 -0.120000
v 0.150000 -0.480000 -0.120000
v 0.150000 -0.200000 -0.120000
v 0.120000 -0.200000 -0.120000
vn 0.000000 0.000000 -1.000000
vn 0.000000 0.000000 1.000000
vn 1.000000 0.000000 0.000000
vn -1.000000 0.000000 0.000000
vn 0.000000 1.000000 0.000000
vn 0.000000 -1.000000 0.000000
f 49//37 50//37 51//37 52//37
f 53//38 54//38 55//38 56//38
f 52//39 51//39 55//39 54//39
f 49//40 53//40 56//40 50//40
f 50//41 56//41 55//41 51//41
f 49//42 52//42 54//42 53//42
o BottomNorth
s off
v -0.150000 -0.540000 0.120000
v -0.150000 -0.480000 0.120000
v 0.150000 -0.480000 0.120000
v 0.150000 -0.540000 0.120000
v -0.150000 -0.540000 0.150000
v 0.150000 -0.540000 0.150000
v 0.150000 -0.480000 0.150000
v -0.150000 -0.480000 0.150000
vn 0.000000 0.000000 -1.000000
vn 0.000000 0.000000 1.000000
vn 1.000000 0.000000 0.000000
vn -1.000000 0.000000 0.000000
vn 0.000000 1.000000 0.000000
vn 0.000000 -1.000000 0.000000
f 57//43 58//43 59//43 60//43
f 61//44 62//44 63//44 64//44
f 60//45 59//45 63//45 62//45
f 57//46 61//46 64//46 58//46
f 58//47 64//47 63//47 59//47
f 57//48 60//48 62//48 61//48
o BottomSouth
s off
v -0.150000 -0.540000 -0.150000
v -0.150000 -0.480000 -0.150000
v 0.150000 -0.480000 -0.150000
v 0.150000 -0.540000 -0.150000
v -0.150000 -0.540000 -0.120000
v 0.150000 -0.540000 -0.120000
v 0.150000 -0.480000 -0.120000
v -0.150000 -0.480000 -0.120000
vn 0.000000 0.000000 -1.000000
vn 0.000000 0.000000 1.000000
vn 1.000000 0.000000 0.000000
vn -1.000000 0.000000 0.000000
vn 0.000000 1.000000 0.000000
vn 0.000000 -1.000000 0.000000
f 65//49 66//49 67//49 68//49
f 69//50 70//50 71//50 72//50
f 68//51 67//51 71//51 70//51
f 65//52 69//52 72//52 66//52
f 66//53 72//53 71//53 67//53
f 65//54 68//54 70//54 69//54
o BottomEast
s off
v 0.120000 -0.540000 -0.120000
v 0.120000 -0.480000 -0.120000
v 0.150000 -0.480000 -0.120000
v 0.150000 -0.540000 -0.120000
v 0.120000 -0.540000 0.120000
v 0.150000 -0.540000 0.120000
v 0.150000 -0.480000 0.120000
v 0.120000 -0.480000 0.120000
vn 0.000000 0.000000 -1.000000
vn 0.000000 0.000000 1.000000
vn 1.000000 0.000000 0.000000
vn -1.000000 0.000000 0.000000
vn 0.000000 1.000000 0.000000
vn 0.000000 -1.000000 0.000000
f 73//55 74//55 75//55 76//55
f 77//56 78//56 79//56 80//56
f 76//57 75//57 79//57 78//57
f 73//58 77//58 80//58 74//58
f 74//59 80//59 79//59 75//59
f 73//60 76//60 78//60 77//60
o BottomWest
s off
v -0.150000 -0.540000 -0.120000
v -0.150000 -0.480000 -0.120000
v -0.120000 -0.480000 -0.120000
v -0.120000 -0.540000 -0.120000
v -0.150000 -0.540000 0.120000
v -0.120000 -0.540000 0.120000
v -0.120000 -0.480000 0.120000
v -0.150000 -0.480000 0.120000
vn 0.000000 0.000000 -1.000000
vn 0.000000 0.000000 1.000000
vn 1.000000 0.000000 0.000000
vn -1.000000 0.000000 0.000000
vn 0.000000 1.000000 0.000000
vn 0.000000 -1.000000 0.000000
f 81//61 82//61 83//61 84//61
f 85//62 86//62 87//62 88//62
f 84//63 83//63 87//63 86//63
f 81//64 85//64 88//64 82//64
f 82//65 88//65 87//65 83//65
f 81//66 84//66 86//66 85//66
