# Vark imported model: WallLampGlass
o WallLampGlass
s off
v -0.079000 -0.069000 0.181000
v -0.079000 0.069000 0.181000
v 0.079000 0.069000 0.181000
v 0.079000 -0.069000 0.181000
v -0.079000 -0.069000 0.279000
v 0.079000 -0.069000 0.279000
v 0.079000 0.069000 0.279000
v -0.079000 0.069000 0.279000
vn 0.000000 0.000000 -1.000000
vn 0.000000 0.000000 1.000000
vn 1.000000 0.000000 0.000000
vn -1.000000 0.000000 0.000000
vn 0.000000 1.000000 0.000000
vn 0.000000 -1.000000 0.000000
f 1//1 2//1 3//1 4//1
f 5//2 6//2 7//2 8//2
f 4//3 3//3 7//3 6//3
f 1//4 5//4 8//4 2//4
f 2//5 8//5 7//5 3//5
f 1//6 4//6 6//6 5//6
