# Vark imported model: WallLamp
o WallLamp
s off
v -0.120000 -0.120000 -0.050000
v -0.120000 0.120000 -0.050000
v 0.120000 0.120000 -0.050000
v 0.120000 -0.120000 -0.050000
v -0.120000 -0.120000 0.020000
v 0.120000 -0.120000 0.020000
v 0.120000 0.120000 0.020000
v -0.120000 0.120000 0.020000
vn 0.000000 0.000000 -1.000000
vn 0.000000 0.000000 1.000000
vn 1.000000 0.000000 0.000000
vn -1.000000 0.000000 0.000000
vn 0.000000 1.000000 0.000000
vn 0.000000 -1.000000 0.000000
f 1//1 2//1 3//1 4//1
f 5//2 6//2 7//2 8//2
f 4//3 3//3 7//3 6//3
f 1//4 5//4 8//4 2//4
f 2//5 8//5 7//5 3//5
f 1//6 4//6 6//6 5//6
v -0.035000 -0.030000 0.020000
v -0.035000 0.030000 0.020000
v 0.035000 0.030000 0.020000
v 0.035000 -0.030000 0.020000
v -0.035000 -0.030000 0.180000
v 0.035000 -0.030000 0.180000
v 0.035000 0.030000 0.180000
v -0.035000 0.030000 0.180000
vn 0.000000 0.000000 -1.000000
vn 0.000000 0.000000 1.000000
vn 1.000000 0.000000 0.000000
vn -1.000000 0.000000 0.000000
vn 0.000000 1.000000 0.000000
vn 0.000000 -1.000000 0.000000
f 9//7 10//7 11//7 12//7
f 13//8 14//8 15//8 16//8
f 12//9 11//9 15//9 14//9
f 9//10 13//10 16//10 10//10
f 10//11 16//11 15//11 11//11
f 9//12 12//12 14//12 13//12
v -0.090000 -0.080000 0.180000
v -0.090000 0.080000 0.180000
v 0.090000 0.080000 0.180000
v 0.090000 -0.080000 0.180000
v -0.090000 -0.080000 0.280000
v 0.090000 -0.080000 0.280000
v 0.090000 0.080000 0.280000
v -0.090000 0.080000 0.280000
vn 0.000000 0.000000 -1.000000
vn 0.000000 0.000000 1.000000
vn 1.000000 0.000000 0.000000
vn -1.000000 0.000000 0.000000
vn 0.000000 1.000000 0.000000
vn 0.000000 -1.000000 0.000000
f 17//13 18//13 19//13 20//13
f 21//14 22//14 23//14 24//14
f 20//15 19//15 23//15 22//15
f 17//16 21//16 24//16 18//16
f 18//17 24//17 23//17 19//17
f 17//18 20//18 22//18 21//18
